PathFileType	4	(x/y/z)	S02_M20_T14
DataRate	CameraRate	NumFrames	NumMarkers	Units	OrigDataRate	OrigDataStartFrame	OrigNumFrames
240	240	4	51	mm	240	173	460
Frame#	Time	Sternum			R.Acromium			L.Acromium			Top.Head			R.ASIS			L.ASIS			R.PSIS			L.PSIS			R.Great.Tro			L.Great.Tro			R.Iliac.Crest			L.Iliac.Crest			V.Sacral			R.Thigh.Upper.Post			R.Thigh.Lower.Ant			R.Thigh.Lower.Post			R.Thigh.Upper.Ant			R.Knee.Lat			R.Knee.Med			R.Shank.Upper.Post			R.Shank.Lower.Ant			R.Shank.Lower.Post			R.Shank.Upper.Ant			R.Ankle.Lat			R.Ankle.Med			R.Heel.Upper			R.Heel.Med			R.Heel.Lat			R.Toe.Lat			R.Toe.Med			R.Toe.Tip			L.Thigh.Upper.Post			L.Thigh.Lower.Ant			L.Thigh.Lower.Post			L.Thigh.Upper.Ant			L.Knee.Lat			L.Knee.Med			L.Shank.Upper.Post			L.Shank.Lower.Ant			L.Shank.Lower.Post			L.Shank.Upper.Ant			L.Ankle.Lat			L.Ankle.Med			L.Heel.Upper			L.Heel.Med			L.Heel.Lat			L.Toe.Lat			L.Toe.Med			L.Toe.Tip			Cervical.Spine			Back			
		X1	Y1	Z1	X2	Y2	Z2	X3	Y3	Z3	X4	Y4	Z4	X5	Y5	Z5	X6	Y6	Z6	X7	Y7	Z7	X8	Y8	Z8	X9	Y9	Z9	X10	Y10	Z10	X11	Y11	Z11	X12	Y12	Z12	X13	Y13	Z13	X14	Y14	Z14	X15	Y15	Z15	X16	Y16	Z16	X17	Y17	Z17	X18	Y18	Z18	X19	Y19	Z19	X20	Y20	Z20	X21	Y21	Z21	X22	Y22	Z22	X23	Y23	Z23	X24	Y24	Z24	X25	Y25	Z25	X26	Y26	Z26	X27	Y27	Z27	X28	Y28	Z28	X29	Y29	Z29	X30	Y30	Z30	X31	Y31	Z31	X32	Y32	Z32	X33	Y33	Z33	X34	Y34	Z34	X35	Y35	Z35	X36	Y36	Z36	X37	Y37	Z37	X38	Y38	Z38	X39	Y39	Z39	X40	Y40	Z40	X41	Y41	Z41	X42	Y42	Z42	X43	Y43	Z43	X44	Y44	Z44	X45	Y45	Z45	X46	Y46	Z46	X47	Y47	Z47	X48	Y48	Z48	X49	Y49	Z49	X50	Y50	Z50	X51	Y51	Z51	

173	0.71667	-559.97	1056.8	342.37	-679.07	1286.8	496.78	-668.83	1296.5	204.04	-658.49	1582.6	344.16	-578.58	881.71	439.77	-596.23	854.78	221.54	-803.17	915.72	397.83	-813.77	915.42	323.83	-616.47	789.64	532.52	-742.22	778.88	147.86	-675.61	934.27	503.08	-719.46	911.64	164.42	-835.44	868.1	359.87	-533.51	608.59	509.33	-456.21	562.19	461.04	-511.64	522.95	488.15	-482.67	646.14	480.56	-464.21	461.36	463.93	-485.75	445.79	325.89	-511.66	242.52	456.65	-430.13	172.8	428.47	-496.05	171.24	444.05	-439.97	240.68	446.02	-472.2	85.529	427.79	-468.39	96.827	345.78	-534.47	71.688	373.41	-520.05	40.17	345.88	-529.29	40.777	409.59	-366.71	40.524	447.2	-336.67	34.999	340.01	-288.26	65.27	393.5	-825.31	582.96	182.61	-775.28	484.94	171.08	-848.9	496.53	200.37	-757.63	577.71	156.63	-820.39	414.99	178.2	-807.48	399.84	313.03	-998.38	354.17	181.82	-1017.7	244.82	187.91	-1055.4	306.84	197.18	-968.34	300.17	175.21	-1121.8	200.54	199.79	-1118.2	195.45	282.48	-1181	233.49	236	-1195.5	217.88	274.08	-1203.8	212.76	211.46	-1127.6	67.708	189.09	-1102.2	68.761	296.81	-1057.1	38.63	254.61	-755.83	1353.1	351.93	-825.34	1100	342.81
174	0.72083	-553.94	1057.9	343.31	-673.19	1287.6	497.73	-662.88	1297.5	205.09	-652.81	1583.5	345.57	-572.8	883.03	440.72	-590.1	855.44	222.62	-797.43	916.7	397.66	-807.79	916.16	323.68	-611.23	790.82	533.44	-735.58	778.63	148.59	-670.23	935.5	503.35	-712.95	912.39	164.91	-829.57	868.97	359.83	-528.51	609.05	510.24	-451.33	562.36	462.01	-506.96	523.35	488.99	-477.43	646.41	481.63	-459.92	461.37	464.69	-480.28	446.43	326.49	-509.49	243.01	457.09	-428.72	172.43	428.75	-494.66	171.6	444.41	-437.79	240.38	446.43	-471.87	85.613	427.9	-468.05	97.023	346.04	-534.36	71.84	373.57	-519.99	40.373	345.99	-529.19	40.892	409.71	-366.58	40.359	447.21	-336.57	34.731	339.92	-288.04	64.755	393.46	-817.17	582	182.66	-766.19	484.48	171.04	-839.94	495.32	200.24	-749.38	577.45	156.84	-810.93	414.36	177.86	-797.39	398.67	312.58	-989.29	355.58	181.89	-1009.8	246.48	187.67	-1046.8	308.93	197.21	-960.49	301.44	174.67	-1114.3	203.48	199.47	-1110.6	198.15	282.25	-1172.1	238.2	235.87	-1187	223.12	274.1	-1195.8	218.24	211.47	-1124.3	70.581	189.12	-1098.1	70.843	296.54	-1054.6	38.007	254.06	-749.92	1353.9	352.95	-819.29	1100.8	343.35
175	0.725	-547.98	1059	344.23	-667.35	1288.4	498.65	-657.01	1298.5	206.1	-647.14	1584.5	346.96	-567.09	884.39	441.67	-584.02	856.18	223.69	-791.74	917.69	397.52	-801.87	916.94	323.57	-606.05	791.95	534.37	-729	778.46	149.36	-664.92	936.73	503.65	-706.54	913.17	165.43	-823.76	869.87	359.82	-523.66	609.42	511.12	-446.62	562.41	462.97	-502.48	523.67	489.78	-472.32	646.56	482.7	-455.85	461.3	465.46	-475.06	446.97	327.09	-507.47	243.48	457.46	-427.42	172.05	429.05	-493.4	171.93	444.74	-435.77	240.07	446.86	-471.58	85.692	428	-467.75	97.214	346.28	-534.28	71.971	373.73	-519.94	40.556	346.09	-529.11	40.988	409.81	-366.48	40.233	447.24	-336.49	34.531	339.86	-287.87	64.334	393.44	-809	581.1	182.67	-757.05	484.1	170.97	-830.93	494.17	200.09	-741.09	577.26	157.03	-801.38	413.79	177.52	-787.21	397.58	312.12	-980.04	356.99	181.98	-1001.8	248.14	187.45	-1038	311	197.26	-952.48	302.72	174.15	-1106.6	206.38	199.19	-1102.8	200.8	282.06	-1162.9	242.8	235.78	-1178.2	228.22	274.14	-1187.4	223.61	211.53	-1120.6	73.52	189.15	-1093.6	72.955	296.25	-1051.7	37.442	253.48	-744.05	1354.8	353.94	-813.29	1101.7	343.88
176	0.72917	-542.07	1060.2	345.14	-661.57	1289.3	499.56	-651.21	1299.5	207.07	-641.49	1585.5	348.34	-561.45	885.77	442.62	-578	857	224.75	-786.1	918.7	397.42	-796.01	917.75	323.5	-600.9	793.02	535.3	-722.47	778.38	150.15	-659.65	937.95	503.98	-700.24	913.96	165.96	-818.01	870.8	359.83	-518.96	609.72	511.98	-442.07	562.36	463.92	-498.2	523.9	490.53	-467.34	646.61	483.76	-452	461.16	466.23	-470.14	447.39	327.7	-505.6	243.9	457.78	-426.24	171.67	429.37	-492.25	172.23	445.02	-433.9	239.75	447.29	-471.34	85.765	428.11	-467.48	97.399	346.5	-534.21	72.084	373.87	-519.9	40.722	346.18	-529.04	41.068	409.91	-366.39	40.139	447.27	-336.43	34.388	339.8	-287.73	63.992	393.43	-800.78	580.26	182.65	-747.85	483.8	170.89	-821.86	493.08	199.91	-732.78	577.15	157.2	-791.75	413.28	177.18	-776.94	396.57	311.67	-970.65	358.39	182.09	-993.5	249.79	187.24	-1029.1	313.05	197.33	-944.3	304	173.67	-1098.7	209.25	198.95	-1094.7	203.4	281.92	-1153.5	247.28	235.72	-1169.2	233.16	274.2	-1178.8	228.84	211.63	-1116.6	76.503	189.18	-1088.8	75.078	295.95	-1048.6	36.955	252.87	-738.23	1355.7	354.91	-807.34	1102.7	344.41
